<?xml version="1.0" encoding="utf-8"?>
<!-- Generator: Adobe Illustrator 21.1.0, SVG Export Plug-In . SVG Version: 6.00 Build 0)  -->
<svg version="1.1" id="Слой_1" xmlns="http://www.w3.org/2000/svg" xmlns:xlink="http://www.w3.org/1999/xlink" x="0px" y="0px"
	 viewBox="0 0 575.2 551.7" style="enable-background:new 0 0 575.2 551.7;" xml:space="preserve">
<style type="text/css">
	.st0{fill:#ABC541;}
	.st1{fill:#595959;}
	.st2{fill:#DC9022;}
	.st3{fill:#C7337E;}
	.st4{fill:#6DB7C8;}
</style>
<g>
	<g>
		<path d="M155.6,406.9c-3.1-2.8-7.3-4.3-11.5-4.3c-9.6,0-17.7,7.8-17.7,17.4v12.8v28c0,3.8-3.1,7-7,7c-3.8,0-7-3.1-7-7v-28V420
			v-24.4c0-3.8,3.4-7,7.2-7c3.3,0,6.3,2.3,7,5.5c5-3.5,11-5.5,17.5-5.5c7.6,0,14.9,2.7,20.6,7.7c2.9,2.6,3.3,7,0.7,9.9
			C162.9,409.1,158.4,409.5,155.6,406.9z"/>
		<path d="M218.4,388.7c21.7,0,39.5,17.8,39.5,39.5c0,21.7-17.8,39.5-39.5,39.5c-21.7,0-39.5-17.8-39.5-39.5
			C178.9,406.5,196.7,388.7,218.4,388.7z M218.4,402.6c-14.1,0-25.6,11.5-25.6,25.6c0,14.1,11.5,25.6,25.6,25.6
			c14.1,0,25.6-11.5,25.6-25.6C244,414.1,232.5,402.6,218.4,402.6z"/>
		<path d="M316.7,388.7c9.8,0,18.7,3.5,25.7,9.4v-2.4c0-3.8,3.1-7,7-7s7,3.1,7,7v65.1c0,3.8-3.1,7-7,7s-7-3.1-7-7v-2.4
			c-7,5.8-15.9,9.4-25.7,9.4c-21.8,0-39.6-17.8-39.6-39.5C277.1,406.5,294.8,388.7,316.7,388.7z M316.6,402.6
			c-14.1,0-25.6,11.5-25.6,25.6c0,14.1,11.5,25.6,25.6,25.6c14.1,0,25.6-11.5,25.6-25.6C342.1,414.1,330.6,402.6,316.6,402.6z"/>
		<path d="M454.4,358.5v102.3c0,3.8-3.1,7-7,7s-7-3.1-7-7v-2.4c-7,5.8-15.8,9.4-25.6,9.4c-21.8,0-39.5-17.8-39.5-39.5
			c0-21.7,17.8-39.5,39.5-39.5c9.8,0,18.6,3.5,25.6,9.4v-39.6c0-3.8,3.1-7,7-7S454.4,354.6,454.4,358.5z M440.6,428.2
			c0-14.1-11.5-25.6-25.6-25.6c-14.1,0-25.6,11.5-25.6,25.6c0,14.1,11.5,25.6,25.6,25.6C429.1,453.8,440.6,442.2,440.6,428.2z"/>
	</g>
	<g>
		<g>
			<path class="st0" d="M314.4,485.3c-21.1,10.7-42.2,21.4-63.3,32.2c-9.7,4.9-19.1,10.9-30.4,10.6c-10.3-0.3-20.4-5.4-26.7-13.5
				c-2.9-3.8-4.9-8.3-7-12.5c-6.1-11.9-12.1-23.9-18.2-35.8c-3.5-6.9-13.9-0.8-10.4,6.1c5.6,11,11.2,22,16.7,33
				c2.2,4.4,4.2,9,6.9,13.1c6.2,9.6,15.7,16.7,26.6,19.9c11.1,3.2,23,2.1,33.4-2.8c2.8-1.3,5.5-2.7,8.2-4.1
				c13.2-6.7,26.4-13.4,39.6-20.1c10.2-5.2,20.4-10.4,30.6-15.5C327.4,492.1,321.3,481.8,314.4,485.3L314.4,485.3z"/>
		</g>
	</g>
	<g>
		<g>
			<path class="st0" d="M454.8,209.4c11.9,25.3,23.7,50.7,35.6,76c7.7,16.5,15.4,33,23.2,49.5c4.1,8.7,10.4,18.7,11.3,28.5
				c1.3,14.4-6.9,27-19.7,33.1c-7.6,3.6-15.2,7.1-22.8,10.7c-7,3.3-0.9,13.6,6.1,10.4c7.2-3.3,14.3-6.7,21.5-10
				c11.3-5.3,19.9-13.9,24.3-25.6c4.3-11.5,3.2-23.9-1.8-34.9c-1.5-3.2-3-6.5-4.5-9.7C511.9,303.1,496,269.1,480,235
				c-4.9-10.6-9.9-21.1-14.8-31.7C461.9,196.3,451.6,202.4,454.8,209.4L454.8,209.4z"/>
		</g>
	</g>
	<g>
		<g>
			<path class="st0" d="M218.6,120.7C260,101.3,301.3,82,342.7,62.6c8.7-4.1,17.1-7.5,27.1-5.2c12.4,2.9,19.4,11.8,24.6,22.7
				c10.6,22.6,21.2,45.2,31.7,67.9c9.6,20.5,19.1,40.9,28.7,61.4c3.3,7,13.6,0.9,10.4-6.1c-19.8-42.2-39.5-84.5-59.3-126.7
				c-4.5-9.5-9.3-18.1-18.3-24.3c-13.9-9.5-30.9-9.4-45.7-2.5c-21.6,10.1-43.2,20.2-64.8,30.3c-21.5,10.1-43,20.1-64.5,30.2
				C205.5,113.6,211.6,123.9,218.6,120.7L218.6,120.7z"/>
		</g>
	</g>
	<g>
		<g>
			<path class="st0" d="M111.5,351.5C93.1,312,74.2,272.7,56.1,233c-6.8-14.9-2-33.1,12.3-41.7c5.1-3.1,10.9-5.4,16.4-7.9
				c25.2-11.8,50.3-23.5,75.5-35.3c19.5-9.1,39-18.2,58.5-27.4c7-3.3,0.9-13.6-6.1-10.4c-43.3,20.3-86.6,40.5-129.9,60.8
				c-5.5,2.6-11.1,5.1-16.6,7.8c-18.9,9.2-29,31-23.7,51.4c2,7.5,6.2,14.8,9.4,21.8c5.9,12.6,11.8,25.2,17.7,37.8
				c10.6,22.6,21.2,45.2,31.7,67.8C104.4,364.6,114.8,358.5,111.5,351.5L111.5,351.5z"/>
		</g>
	</g>
	<g>
		<path class="st1" d="M39.3,174.5l-8.4-18.1c-0.3-0.7-0.2-1.5,0.3-2.1c0.5-0.6,1.3-0.7,2-0.5l10.9,4.3l3.7-11.1
			c0.3-0.7,0.9-1.2,1.7-1.3c0.8-0.1,1.5,0.4,1.8,1.1l8.4,18.1c0.4,0.9,0,2.1-0.9,2.5c-0.9,0.4-2.1,0-2.5-0.9l-6.4-13.8l-2.8,8.5
			c-0.2,0.5-0.5,0.9-1,1.1c-0.5,0.2-1,0.2-1.5,0l-8.3-3.3l6.4,13.8c0.4,0.9,0,2.1-0.9,2.5C40.9,175.9,39.8,175.5,39.3,174.5z"/>
		<path class="st1" d="M63,163.5l-8.4-18.1c-0.4-0.9,0-2.1,0.9-2.5s2.1,0,2.5,0.9l8.4,18.1c0.4,0.9,0,2.1-0.9,2.5
			C64.5,164.9,63.4,164.5,63,163.5z"/>
		<path class="st1" d="M65.4,151.3c-2.8-5.9-0.2-13,5.7-15.8c2.6-1.2,5.5-1.4,8.3-0.6c1,0.3,1.6,1.3,1.3,2.4c-0.3,1-1.3,1.6-2.3,1.3
			c-1.9-0.5-3.9-0.4-5.6,0.5c-4,1.9-5.8,6.7-3.9,10.7c1.9,4,6.7,5.8,10.7,3.9c1.8-0.8,3.2-2.2,4-4c0.4-1,1.6-1.4,2.5-1
			c1,0.4,1.4,1.6,1,2.5c-1.2,2.6-3.3,4.7-5.8,5.9C75.2,159.9,68.1,157.3,65.4,151.3z"/>
		<path class="st1" d="M91.2,150.3l-8.4-18.1c-0.5-1,0.1-2.1,1-2.5L94,125c0.9-0.4,2.1,0,2.5,0.9c0.4,0.9,0,2.1-0.9,2.5l-8.5,4
			l2.6,5.6l7.4-3.5c0.9-0.4,2.1,0,2.5,0.9c0.4,0.9,0,2.1-0.9,2.5l-7.4,3.5l2.6,5.6l8.6-4c0.9-0.4,2.1,0,2.5,0.9s0,2.1-0.9,2.5
			l-10.2,4.8C92.9,151.7,91.7,151.3,91.2,150.3z"/>
		<path class="st1" d="M124.5,136.8c-2.3,1.1-4.3,0.6-5.1,0.3c-1-0.4-1.5-1.5-1.1-2.4c0.4-1,1.5-1.5,2.4-1.1
			c0.4,0.1,1.4,0.4,2.5-0.3c0.3-0.2,0.7-0.9,0.5-1.2c-0.2-0.3-0.4-0.6-2.6-0.6c-2.2,0-4.6-0.1-6-2.5c-1.3-2.2-0.2-5.2,1.9-6.4
			c2.5-1.5,4.8-0.9,5.7-0.6c1,0.4,1.5,1.5,1.1,2.4c-0.4,1-1.5,1.5-2.4,1.1c-0.4-0.1-1.4-0.4-2.5,0.3c-0.3,0.1-0.8,0.8-0.5,1.2
			c0.2,0.3,0.4,0.6,2.6,0.6c2.2,0,4.6,0.1,6,2.5C128.4,132.7,126.9,135.7,124.5,136.8z"/>
		<path class="st1" d="M143.2,126.7c-0.8,1.4-2,2.4-3.5,3.1c-4,1.9-8.9,0.1-10.7-3.9c-1.9-4-0.1-8.9,3.9-10.7
			c3.6-1.7,8-0.5,10.1,2.9l0,0.1l0.1,0.2c0.5,0.8,0.3,1.7-0.2,2.3c-0.1,0.2-0.3,0.3-0.6,0.4l-9.3,4.3c1.2,1.3,3.2,1.8,5,1
			c0.8-0.4,1.4-0.9,1.8-1.6c0.5-0.9,1.7-1.2,2.6-0.6C143.4,124.6,143.7,125.8,143.2,126.7z M132,122.5l7-3.3c-1.2-1-3-1.3-4.6-0.6
			C132.9,119.3,132,120.9,132,122.5z"/>
		<path class="st1" d="M149.3,123.2l-5.2-11.2c-0.4-0.9,0-2.1,0.9-2.5c0.6-0.3,1.2-0.2,1.7,0.1c0.6-0.8,1.5-1.5,2.5-2
			c1.4-0.7,3-0.8,4.5-0.4c1,0.3,1.6,1.4,1.3,2.4c-0.3,1-1.3,1.6-2.4,1.3c-0.6-0.2-1.3-0.1-1.9,0.2c-1.4,0.6-2,2.3-1.3,3.6l3.3,7
			c0.4,0.9,0,2.1-0.9,2.5C150.9,124.5,149.8,124.1,149.3,123.2z"/>
		<path class="st1" d="M158.3,104.5l6.9,6l-0.2-9.2c0-1,0.8-1.9,1.8-1.9c1,0,1.9,0.8,1.9,1.8l0.3,13.5c0,0.8-0.4,1.5-1.1,1.8
			c-0.7,0.3-1.5,0.2-2.1-0.3l-10.1-8.9c-0.8-0.7-0.9-1.9-0.2-2.7S157.4,103.9,158.3,104.5z"/>
		<path class="st1" d="M168.6,90.9c0.9-0.4,2.1,0,2.5,0.9c0.4,0.9,0,2.1-0.9,2.5c-0.9,0.4-2.1,0-2.5-0.9
			C167.2,92.5,167.6,91.4,168.6,90.9z M171.6,97.1c0.9-0.4,2.1,0,2.5,0.9l5.2,11.2c0.4,0.9,0,2.1-0.9,2.5c-0.9,0.4-2.1,0-2.5-0.9
			l-5.2-11.2C170.2,98.6,170.6,97.5,171.6,97.1z"/>
		<path class="st1" d="M194.6,102c-0.8,1.8-2.2,3.2-4,4c-4,1.9-8.9,0.1-10.7-3.9s-0.1-8.9,3.9-10.7c1.8-0.8,3.8-1,5.6-0.5
			c1,0.3,1.6,1.3,1.3,2.4c-0.3,1-1.3,1.6-2.4,1.3c-1-0.3-2.1-0.2-3,0.2c-2.1,1-3.1,3.5-2.1,5.7s3.6,3.1,5.7,2.1
			c0.9-0.4,1.7-1.2,2.1-2.1c0.4-1,1.6-1.4,2.5-1C194.6,99.9,195,101,194.6,102z"/>
		<path class="st1" d="M210,95.5c-0.8,1.4-2,2.4-3.5,3.1c-4,1.9-8.9,0.1-10.7-3.9c-1.9-4-0.1-8.9,3.9-10.7c3.6-1.7,8-0.5,10.1,2.9
			l0,0.1l0.1,0.2c0.5,0.8,0.3,1.7-0.2,2.3c-0.1,0.2-0.3,0.3-0.6,0.4l-9.3,4.3c1.2,1.3,3.2,1.8,5,1c0.8-0.4,1.4-0.9,1.8-1.6
			c0.5-0.9,1.7-1.2,2.6-0.6C210.3,93.4,210.5,94.6,210,95.5z M198.8,91.3l7-3.3c-1.2-1-3-1.3-4.6-0.6
			C199.7,88.1,198.8,89.7,198.8,91.3z"/>
		<path class="st1" d="M221.8,91.4c-2.3,1.1-4.3,0.6-5.1,0.3c-1-0.4-1.5-1.5-1.1-2.4s1.5-1.5,2.4-1.1c0.4,0.1,1.4,0.4,2.5-0.3
			c0.3-0.2,0.7-0.9,0.5-1.2c-0.2-0.3-0.4-0.6-2.6-0.6c-2.2,0-4.6-0.1-6-2.5c-1.3-2.2-0.2-5.2,1.9-6.4c2.5-1.5,4.8-0.9,5.7-0.6
			c1,0.4,1.5,1.5,1.1,2.4c-0.4,1-1.5,1.5-2.4,1.1c-0.4-0.1-1.4-0.4-2.5,0.3c-0.3,0.1-0.8,0.8-0.5,1.2c0.2,0.3,0.4,0.6,2.6,0.6
			c2.2,0,4.6,0.1,6,2.5C225.7,87.3,224.2,90.3,221.8,91.4z"/>
		<path class="st1" d="M251.7,68.6c1.9,4,0.1,8.9-3.9,10.7c-1.4,0.7-2.8,0.8-4.4,0.7l2.9,6.3c0.4,0.9,0,2.1-0.9,2.5
			c-0.9,0.4-2.1,0-2.5-0.9l-8.4-18.1c-0.4-0.9,0-2.1,1-2.5c0.8-0.4,1.6-0.2,2.2,0.4c0.8-1.3,2-2.3,3.4-3
			C245,62.8,249.8,64.6,251.7,68.6z M248.2,70.2c-1-2.1-3.5-3.1-5.7-2.1c-2.1,1-3.1,3.5-2.1,5.7s3.6,3.1,5.7,2.1
			C248.3,74.9,249.2,72.3,248.2,70.2z"/>
		<path class="st1" d="M257.5,72.7l-5.2-11.2c-0.4-0.9,0-2.1,0.9-2.5c0.6-0.3,1.2-0.2,1.7,0.1c0.6-0.8,1.5-1.5,2.5-2
			c1.4-0.7,3-0.8,4.5-0.4c1,0.3,1.6,1.4,1.3,2.4c-0.3,1-1.4,1.6-2.4,1.3c-0.6-0.2-1.3-0.1-1.9,0.2c-1.4,0.6-2,2.3-1.3,3.6l3.3,7
			c0.4,0.9,0,2.1-0.9,2.5C259,74.1,257.9,73.7,257.5,72.7z"/>
		<path class="st1" d="M271.1,50.6c4-1.9,8.9-0.1,10.7,3.9s0.1,8.9-3.9,10.7c-4,1.9-8.9,0.1-10.7-3.9S267.1,52.5,271.1,50.6z
			 M270.7,59.7c1,2.1,3.6,3.1,5.7,2.1c2.1-1,3.1-3.6,2.1-5.7s-3.5-3.1-5.7-2.1C270.6,55,269.7,57.6,270.7,59.7z"/>
		<path class="st1" d="M284.2,45.7l6.9,6l-0.2-9.2c0-1,0.8-1.9,1.8-1.9c1,0,1.9,0.8,1.9,1.8L295,56c0,0.8-0.4,1.5-1.1,1.8
			c-0.7,0.3-1.5,0.2-2.1-0.3l-10.2-8.9c-0.8-0.7-0.9-1.9-0.2-2.7C282.2,45.1,283.4,45.1,284.2,45.7z"/>
		<path class="st1" d="M294.6,32.1c0.9-0.4,2.1,0,2.5,0.9c0.4,0.9,0,2.1-0.9,2.5c-0.9,0.4-2.1,0-2.5-0.9
			C293.2,33.7,293.6,32.6,294.6,32.1z M297.5,38.3c0.9-0.4,2.1,0,2.5,0.9l5.2,11.2c0.4,0.9,0,2.1-0.9,2.5c-0.9,0.4-2.1,0-2.5-0.9
			l-5.2-11.2C296.2,39.8,296.6,38.7,297.5,38.3z"/>
		<path class="st1" d="M316.6,47.2c-4,1.9-8.9,0.1-10.7-3.9s-0.1-8.8,3.9-10.7c1.4-0.7,2.9-0.9,4.4-0.7l-2.9-6.3
			c-0.4-0.9,0-2.1,0.9-2.5c0.9-0.4,2.1,0,2.5,0.9l8.4,18.1c0.4,0.9,0.1,2.1-0.9,2.5c-0.8,0.4-1.6,0.2-2.1-0.4
			C319.2,45.4,318.1,46.5,316.6,47.2z M315,43.7c2.1-1,3.1-3.5,2.1-5.7s-3.5-3.1-5.7-2.1c-2.1,1-3.1,3.5-2.1,5.7
			C310.3,43.8,312.9,44.7,315,43.7z"/>
		<path class="st1" d="M337.9,35.8c-0.8,1.4-2,2.4-3.5,3.1c-4,1.9-8.9,0.1-10.7-3.9c-1.9-4-0.1-8.9,3.9-10.7c3.6-1.7,8-0.5,10.1,2.9
			l0,0.1l0.1,0.2c0.5,0.8,0.3,1.7-0.2,2.3c-0.1,0.2-0.3,0.3-0.6,0.4l-9.3,4.3c1.2,1.3,3.2,1.8,5,1c0.8-0.4,1.4-0.9,1.8-1.6
			c0.5-0.9,1.7-1.2,2.6-0.6C338.1,33.7,338.4,34.9,337.9,35.8z M326.7,31.6l7-3.3c-1.2-1-3-1.3-4.6-0.6
			C327.6,28.4,326.7,30,326.7,31.6z"/>
		<path class="st1" d="M344,32.3l-5.2-11.2c-0.4-0.9,0-2.1,0.9-2.5c0.6-0.3,1.2-0.2,1.7,0.1c0.6-0.8,1.5-1.5,2.5-2
			c1.4-0.7,3-0.8,4.5-0.4c1,0.3,1.6,1.4,1.3,2.4c-0.3,1-1.3,1.6-2.4,1.3c-0.6-0.2-1.3-0.1-1.9,0.2c-1.4,0.6-2,2.3-1.3,3.6l3.3,7
			c0.4,0.9,0,2.1-0.9,2.5C345.6,33.7,344.5,33.3,344,32.3z"/>
	</g>
	<path class="st0" d="M231.2,220.3c-12.3-9.7-27.4-14.9-43-14.9l0,34.8c12.1,0,23,6.3,29.5,16.1c16.2,24.5-0.9,57.8-29.5,57.8
		l0,34.8c15.2,0,30.4-5,43.1-15c0.7-0.6,1.4-1.1,2.1-1.7v-110C232.7,221.5,231.9,220.9,231.2,220.3z"/>
	<path class="st2" d="M265.6,224.7l-34.3-3.8c0,0,0,0,0,0c0,0,0,0,0,0l-0.1,0c0,0,0,0,0.1,0c-0.3,1.2-0.5,2.5-0.5,3.8
		c0,113.2-0.2,106.9,0.6,109.7c0,0,0,0-0.1,0.1l0.1,0c0,0,0,0,0,0c0,0,0,0,0,0l34.2-4.2L265.6,224.7L265.6,224.7z"/>
	<path class="st3" d="M231.2,220.4c-0.2,1.1-0.4,2.5-0.4,3.8c0,113.9-0.2,106.8,0.5,109.7c18.2-14.4,27.3-35.6,27.3-56.7
		C258.6,255.9,249.4,234.7,231.2,220.4"/>
	<path class="st2" d="M188.2,205.9L188.2,205.9C188.2,205.9,188.2,205.9,188.2,205.9"/>
	<path class="st4" d="M188.2,314.1L188.2,314.1c-19.7,0-35.7-16.5-35.7-37c0-20.4,15.9-37,35.7-37l0-34.8
		c-50.6,0-84.3,52.6-64.9,99.5c10.8,26.1,36,44,64.9,44L188.2,314.1z"/>
	<path class="st3" d="M188.2,205.3L188.2,205.3c-9.6,0-17.4,7.8-17.4,17.4c0,9.6,7.8,17.4,17.4,17.4l0,0c9.6,0,17.4-7.8,17.4-17.4
		C205.6,213.1,197.8,205.3,188.2,205.3 M188.2,314.1L188.2,314.1c-9.6,0-17.4,7.8-17.4,17.4c0,9.6,7.8,17.4,17.4,17.4l0,0
		c9.6,0,17.4-7.8,17.4-17.4C205.6,321.8,197.8,314.1,188.2,314.1"/>
	<circle class="st4" cx="248.2" cy="223.7" r="17.4"/>
	<path class="st3" d="M339.5,331.4"/>
	<rect x="304.8" y="173.7" class="st0" width="34.8" height="157.7"/>
	<circle class="st4" cx="322.1" cy="173.7" r="17.4"/>
	<path class="st4" d="M375.2,205.3c-12.6,0-24.8,3.4-35.6,9.9v61.7c0.2-36.3,45.5-50.4,65.1-20.6c16.1,24.5-0.9,57.8-29.5,57.8l0,0
		c-19.7,0-35.5-16.5-35.7-36.7v52.3c0,2.9-0.7,5.7-2,8.1c32.1,20.7,74.8,11.7,96.2-20.7C465.1,269.4,431.3,205.3,375.2,205.3"/>
	<path class="st3" d="M339.5,215.2c-9.2,5.5-17,13-22.9,21.9c-3.8,5.7-6.8,12-8.8,18.7c-2,6.7-3.1,13.9-3.1,21.2
		c0,9.8,1.9,19.2,5.5,27.8c5.3,12.9,14.2,23.8,25.4,31.6c0.6,0.4,1.3,0.9,1.9,1.3c1.3-2.4,2-5.2,2-8.1v-52.3c0-0.1,0-0.1,0-0.2
		c0-0.1,0-0.1,0-0.2V215.2"/>
	<path class="st2" d="M304.8,331.5c0-9.6,7.8-17.4,17.4-17.4c9.6,0,17.4,7.8,17.4,17.4c0,9.6-7.8,17.4-17.4,17.4
		C312.5,348.9,304.8,341.1,304.8,331.5L304.8,331.5z"/>
	<circle class="st4" cx="248.2" cy="331.4" r="17.4"/>
</g>
</svg>
